# AST/ASF file generated using VICON BodyLanguage
# -----------------------------------------------
:version 1.10
:name VICON
:units
  mass 1.0
  length 0.45
  angle deg
:documentation
   .ast/.asf automatically generated from VICON data using
   VICON BodyBuilder and BodyLanguage model FoxedUp or BRILLIANT.MOD
:root
   order TX TY TZ RX RY RZ
   axis XYZ
   position 0 0 0  
   orientation 0 0 0 
:bonedata
  begin
     id 1 
     name lhipjoint
     direction 0.627457 -0.725269 0.283342 
     length 2.53237 
     axis 0 0 0  XYZ
  end
  begin
     id 2 
     name lfemur
     direction 0.34202 -0.939693 0  
     length 7.32496  
     axis 0 0 20  XYZ
    dof rx ry rz
    limits (-160.0 20.0)
           (-70.0 70.0)
           (-60.0 70.0)
  end
  begin
     id 3 
     name ltibia
     direction 0.34202 -0.939693 0   
     length 7.69674   
     axis 0 0 20   XYZ
    dof rx
    limits (-10.0 170.0)
  end
  begin
     id 4 
     name lfoot
     direction 0.127289 -0.349722 0.928166   
     length 1.8612   
     axis -90 7.62852e-016 20   XYZ
    dof rx rz
    limits (-45.0 90.0)
           (-70.0 20.0)
  end
  begin
     id 5 
     name ltoes
     direction 1.53561e-011 -4.21864e-011 1   
     length 0.925608   
     axis -90 7.62852e-016 20   XYZ
    dof rx
    limits (-90.0 20.0)
  end
  begin
     id 6 
     name rhipjoint
     direction -0.609094 -0.738725 0.288599   
     length 2.48624  
     axis 0 0 0  XYZ 
  end
  begin
     id 7 
     name rfemur
     direction -0.34202 -0.939693 0   
     length 7.44259   
     axis 0 0 -20   XYZ
    dof rx ry rz
    limits (-160.0 20.0)
           (-70.0 70.0)
           (-70.0 60.0)
  end
  begin
     id 8 
     name rtibia
     direction -0.34202 -0.939693 0   
     length 7.7781   
     axis 0 0 -20   XYZ
    dof rx
    limits (-10.0 170.0)
 end
 begin
     id 9 
     name rfoot
     direction -0.107015 -0.294021 0.949789   
     length 2.14741  
     axis -90 -7.62852e-016 -20   XYZ
    dof rx rz
    limits (-45.0 90.0)
           (-20.0 70.0)
  end
  begin
     id 10 
     name rtoes
     direction -1.53497e-011 -4.21924e-011 1   
     length 1.0706   
     axis -90 -7.62852e-016 -20   XYZ
    dof rx
    limits (-90.0 20.0)
  end
  begin
     id 11 
     name lowerback
     direction -0.0142066 0.998112 -0.0597545   
     length 1.86627   
     axis 0 0 0   XYZ
    dof rx ry rz
    limits (-20.0 45.0)
           (-30.0 30.0)
           (-30.0 30.0)
  end
  begin
     id 12 
     name upperback
     direction 0.00547294 0.999744 0.0219437   
     length 1.86272   
     axis 0 0 0   XYZ
    dof rx ry rz
    limits (-20.0 45.0)
           (-30.0 30.0)
           (-30.0 30.0)
  end
  begin
     id 13 
     name thorax
     direction 0.0116162 0.998704 0.0495538   
     length 1.8703   
     axis 0 0 0   XYZ
    dof rx ry rz
    limits (-20.0 45.0)
           (-30.0 30.0)
           (-30.0 30.0)
  end
  begin
     id 14 
     name lowerneck
     direction -0.0106574 0.998739 0.0490586   
     length 1.8074   
     axis 0 0 0   XYZ
    dof rx ry rz
    limits (-20.0 45.0)
           (-30.0 30.0)
           (-30.0 30.0)
  end
  begin
     id 15 
     name upperneck
     direction 0.030527 0.976587 -0.212944   
     length 1.80681   
     axis 0 0 0   XYZ
    dof rx ry rz
    limits (-20.0 45.0)
           (-30.0 30.0)
           (-30.0 30.0)
  end
  begin
     id 16
     name head
     direction 0.00869225 0.997035 -0.0764531  
     length 1.8313  
     axis 0 0 0   XYZ
    dof rx ry rz
    limits (-20.0 45.0)
           (-30.0 30.0)
           (-30.0 30.0)
  end
  begin
     id 17 
     name lclavicle
     direction 0.915958 0.399447 0.0382386  
     length 3.78965  
     axis 0 0 0   XYZ
    dof ry rz
    limits (-20.0 10.0)
           (0.0 20.0)
  end
  begin
     id 18 
     name lhumerus
     direction 1 -4.48967e-011 3.19303e-027   
     length 4.78095   
     axis -180 -30 -90   XYZ
    dof rx ry rz
    limits (-60.0 90.0)
           (-90.0 90.0)
           (-90.0 90.0)
  end
  begin
     id 19
     name lradius
     direction 1 -4.48967e-011 -3.77974e-027   
     length 3.58615   
     axis -180 -30 -90   XYZ
    dof rx
    limits (-10.0 170.0)
  end
  begin
     id 20
     name lwrist
     direction 1 -4.48927e-011 1.2807e-027   
     length 1.79307   
     axis 1.91374e-015 90 90   XYZ
    dof ry
    limits (-180.0 0.0)
 end
  begin
     id 21 
     name lhand
     direction 1 -4.49036e-011 2.5614e-027   
     length 0.659812   
     axis -1.63439e-015 90 90   XYZ
    dof rx rz
    limits (-90.0 90.0)
           (-45.0 45.0)
  end
  begin
     id 22 
     name lfingers
     direction 1 -4.49052e-011 5.1228e-027   
     length 0.531957   
     axis -3.26879e-015 90 90   XYZ
    dof rx
    limits (0.0 90.0)
  end
  begin
     id 23
     name lthumb
     direction 0.707107 -6.35012e-011 0.707107   
     length 0.763787   
     axis -90 45 2.85299e-015   XYZ
    dof rx rz
    limits (-45.0 45.0)
           (-45.0 45.0)
  end
  begin
     id 24 
     name rclavicle
     direction -0.895351 0.435135 0.0948887   
     length 3.70497  
     axis 0 0 0   XYZ 
    dof ry rz
    limits (-10.0 20.0)
           (-20.0 0.0)
  end
  begin
     id 25 
     name rhumerus
     direction -1 -4.48971e-011 2.38946e-027  
     length 4.48913   
     axis -180 30 90   XYZ
    dof rx ry rz
    limits (-90.0 60.0)
           (-90.0 90.0)
           (-90.0 90.0)
  end
  begin
     id 26 
     name rradius
     direction -1 -4.4895e-011 4.38668e-027   
     length 3.7051   
     axis -180 30 90   XYZ
    dof rx
    limits (-10.0 170.0)
  end
  begin
     id 27 
     name rwrist
     direction -1 -4.49007e-011 1.2807e-027   
     length 1.85255   
     axis 1.91374e-015 -90 -90   XYZ
    dof ry
    limits (-180.0 0.0)
  end
  begin
     id 28
     name rhand
     direction -1 -4.48851e-011 2.5614e-027   
     length 0.449136   
     axis -1.63439e-015 -90 -90   XYZ
    dof rx rz
    limits (-90.0 90.0)
           (-45.0 45.0)
  end
  begin
     id 29
     name rfingers
     direction -1 -4.49128e-011 5.1228e-027   
     length 0.362105   
     axis -3.26879e-015 -90 -90   XYZ
    dof rx
    limits (0.0 90.0)
  end
  begin
     id 30
     name rthumb
     direction -0.707107 -6.34851e-011 0.707107   
     length 0.519912   
     axis -90 -45 -2.85299e-015   XYZ
    dof rx rz
    limits (-45.0 45.0)
           (-45.0 45.0)
  end
:hierarchy
  begin
    root lhipjoint rhipjoint lowerback
    lhipjoint lfemur
    lfemur ltibia
    ltibia lfoot
    lfoot ltoes
    rhipjoint rfemur
    rfemur rtibia
    rtibia rfoot
    rfoot rtoes
    lowerback upperback
    upperback thorax
    thorax lowerneck lclavicle rclavicle
    lowerneck upperneck
    upperneck head
    lclavicle lhumerus
    lhumerus lradius
    lradius lwrist
    lwrist lhand lthumb
    lhand lfingers
    rclavicle rhumerus
    rhumerus rradius
    rradius rwrist
    rwrist rhand rthumb
    rhand rfingers
  end

#!OML:ASF I:\Actors\actors\Patient Classification 2\Patient 1\Session 1\actor1.ASF
:FULLY-SPECIFIED
:DEGREES
88
root -1.40878 17.9869 5.64704 -3.03293 -2.84394 -2.99337
lowerback 9.20398 1.73381 0.425857
upperback 2.00634 2.38314 1.15994
thorax -3.10671 1.1828 0.681385
lowerneck -14.3082 -2.72864 -3.42497
upperneck 16.2641 -3.81959 4.4795
head 7.51404 -1.61773 1.62486
rclavicle 1.86361e-017 1.07841e-014
rhumerus -50.3808 5.8161 -87.8022
rradius 47.3186
rwrist 3.22952
rhand -9.72704 -24.4514
rfingers 7.12502
rthumb 16.2465 -53.7907
lclavicle 1.86361e-017 1.07841e-014
lhumerus -48.9814 -5.98956 91.7029
lradius 51.1356
lwrist 17.2443
lhand -5.09477 -23.9923
lfingers 7.12502
lthumb 20.7024 4.92352
rfemur 21.3116 -1.6035 19.324
rtibia -18.2728
rfoot -7.51798 -13.5103
rtoes 7.19464
lfemur 22.2686 -3.85283 -13.0648
ltibia -22.1529
lfoot 0.379306 18.8212
ltoes -15.8738
89
root -1.41097 17.9868 5.64941 -3.07645 -2.84945 -2.99892
lowerback 9.22561 1.70027 0.382742
upperback 2.02256 2.33555 1.19041
thorax -3.10439 1.15955 0.742282
lowerneck -14.0768 -2.69104 -3.50096
upperneck 16.0109 -3.77652 4.63256
head 7.39321 -1.59301 1.69391
rclavicle -1.0635e-014 6.21202e-015
rhumerus -50.2036 5.61461 -87.6458
rradius 47.3101
rwrist 3.36734
rhand -9.80725 -24.3697
rfingers 7.12502
rthumb 16.1693 -53.7153
lclavicle -1.0635e-014 6.21202e-015
lhumerus -48.8395 -5.79054 91.6746
lradius 50.8157
lwrist 17.1224
lhand -5.4308 -23.9383
lfingers 7.12502
lthumb 20.3795 5.01233
rfemur 21.3507 -1.60984 19.3021
rtibia -18.2316
rfoot -7.40085 -13.3862
rtoes 7.18826
lfemur 22.2747 -3.95742 -13.073
ltibia -22.0284
lfoot 0.307966 18.8711
ltoes -15.4978
90
root -1.41266 17.9881 5.65127 -3.09152 -2.89514 -3.00528
lowerback 9.20134 1.68913 0.321561
upperback 2.0484 2.31563 1.22774
thorax -3.06791 1.15027 0.818728
lowerneck -13.8972 -2.66584 -3.57276
upperneck 15.7906 -3.76558 4.86403
head 7.2954 -1.57541 1.78379
rclavicle 2.17359e-014 -2.38542e-015
rhumerus -50.0281 5.44935 -87.4855
rradius 47.2707
rwrist 3.46068
rhand -10.2464 -24.186
rfingers 7.12502
rthumb 15.7464 -53.5654
lclavicle 2.17359e-014 -2.38542e-015
lhumerus -48.6389 -5.61642 91.6675
lradius 50.43
lwrist 16.8989
lhand -5.73274 -23.9649
lfingers 7.12502
lthumb 20.0893 5.01645
rfemur 21.3408 -1.55224 19.297
rtibia -18.1829
rfoot -7.26986 -13.3148
rtoes 6.93853
lfemur 22.2583 -4.05229 -13.079
ltibia -21.9074
lfoot 0.176889 18.9587
ltoes -15.0973
91
root -1.41351 17.9912 5.65209 -3.04688 -2.98499 -3.04064
lowerback 9.13992 1.69623 0.330132
upperback 2.04814 2.32561 1.2377
thorax -3.03438 1.15526 0.824907
lowerneck -14.0054 -2.64833 -3.32678
upperneck 15.9096 -3.77017 4.71844
head 7.34583 -1.5734 1.69447
rclavicle -2.67303e-014 1.73937e-015
rhumerus -49.8929 5.2954 -87.3937
rradius 47.1729
rwrist 3.43415
rhand -9.51744 -24.8821
rfingers 7.12502
rthumb 16.4483 -54.2048
lclavicle -2.67303e-014 1.73937e-015
lhumerus -48.4049 -5.59276 91.7022
lradius 50.2051
lwrist 16.8037
lhand -6.0405 -23.0948
lfingers 7.12502
lthumb 19.7934 5.91736
rfemur 21.2523 -1.40692 19.3421
rtibia -18.112
rfoot -7.25592 -13.2971
rtoes 7.08229
lfemur 22.19 -4.15417 -13.0572
ltibia -21.7982
lfoot -0.023177 19.1151
ltoes -14.9057
92
root -1.41335 17.993 5.6525 -3.01254 -3.13609 -3.07059
lowerback 9.07479 1.72145 0.389947
upperback 2.04878 2.36328 1.21759
thorax -2.99487 1.17357 0.768228
lowerneck -14.1209 -2.59832 -3.01296
upperneck 16.083 -3.72806 4.46918
head 7.41004 -1.55385 1.565
rclavicle 3.54085e-016 1.26725e-014
rhumerus -49.7945 5.1888 -87.3601
rradius 47.0765
rwrist 3.40929
rhand -7.08953 -26.7251
rfingers 7.12502
rthumb 18.7847 -55.838
lclavicle 3.54085e-016 1.26725e-014
lhumerus -48.1061 -5.48944 91.5385
lradius 49.4778
lwrist 16.3126
lhand -5.93749 -24.039
lfingers 7.12502
lthumb 19.8924 4.96296
rfemur 21.1469 -1.24606 19.3834
rtibia -18.0051
rfoot -7.30241 -13.2409
rtoes 7.41056
lfemur 22.161 -4.26427 -13.0602
ltibia -21.7083
lfoot -0.193857 19.3395
ltoes -14.6662
93
root -1.41212 17.9931 5.65209 -3.0045 -3.34263 -3.09416
lowerback 9.01546 1.76122 0.468914
upperback 2.07002 2.42166 1.19612
thorax -2.9365 1.20207 0.697359
lowerneck -14.1037 -2.52298 -2.9012
upperneck 16.1025 -3.64388 4.43385
head 7.40725 -1.5101 1.54429
rclavicle -1.28216e-014 1.27222e-014
rhumerus -49.6591 5.15894 -87.3424
rradius 46.9631
rwrist 3.50276
rhand -9.03415 -25.1281
rfingers 7.12502
rthumb 16.9136 -54.4116
lclavicle -1.28216e-014 1.27222e-014
lhumerus -47.8656 -5.59655 91.5428
lradius 49.4263
lwrist 15.9639
lhand -5.90074 -22.5635
lfingers 7.12502
lthumb 19.9278 6.43476
rfemur 21.0366 -1.06707 19.4265
rtibia -17.8639
rfoot -7.39925 -13.1711
rtoes 7.56568
lfemur 22.1818 -4.38856 -13.0876
ltibia -21.6338
lfoot -0.351005 19.6126
ltoes -14.1725
94
root -1.41018 17.9944 5.65042 -2.97866 -3.5569 -3.12958
lowerback 8.96022 1.80185 0.577469
upperback 2.07775 2.48412 1.17739
thorax -2.89309 1.23244 0.612053
lowerneck -14.0886 -2.44472 -2.81472
upperneck 16.1278 -3.54977 4.39584
head 7.40685 -1.46331 1.52789
rclavicle -2.09842e-014 -3.47873e-015
rhumerus -49.5053 5.13849 -87.3298
rradius 46.7803
rwrist 3.72422
rhand -9.65514 -24.6123
rfingers 7.12502
rthumb 16.3157 -53.9459
lclavicle -2.09842e-014 -3.47873e-015
lhumerus -47.569 -5.64873 91.482
lradius 49.0379
lwrist 15.4874
lhand -5.75545 -22.062
lfingers 7.12502
lthumb 20.0674 6.92172
rfemur 20.8819 -0.943647 19.4798
rtibia -17.694
rfoot -7.46286 -13.0804
rtoes 7.52831
lfemur 22.1774 -4.4717 -13.0892
ltibia -21.5575
lfoot -0.530545 19.8566
ltoes -13.6754
95
root -1.40866 17.9978 5.64906 -2.92629 -3.75063 -3.12601
lowerback 8.89509 1.82663 0.628354
upperback 2.04527 2.52086 1.16301
thorax -2.88809 1.25037 0.566105
lowerneck -14.0089 -2.35327 -2.6819
upperneck 16.1669 -3.4282 4.24506
head 7.39578 -1.41174 1.47037
rclavicle 6.71519e-015 -1.3418e-015
rhumerus -49.4095 5.18446 -87.3396
rradius 46.5315
rwrist 3.87586
rhand -8.10068 -25.7009
rfingers 7.12502
rthumb 17.812 -54.9052
lclavicle 6.71519e-015 -1.3418e-015
lhumerus -47.2512 -5.54618 91.3479
lradius 48.3976
lwrist 14.8351
lhand -5.48856 -22.1098
lfingers 7.12502
lthumb 20.3239 6.84677
rfemur 20.6822 -0.850254 19.4876
rtibia -17.4829
rfoot -7.51326 -12.9627
rtoes 7.44085
lfemur 22.1316 -4.46627 -13.1111
ltibia -21.4722
lfoot -0.633069 19.9684
ltoes -13.8235
96
root -1.40812 18.0018 5.64763 -2.85194 -3.89762 -3.06152
lowerback 8.80865 1.8396 0.588579
upperback 1.99687 2.53357 1.14571
thorax -2.89132 1.25698 0.571046
lowerneck -13.8547 -2.24846 -2.55089
upperneck 16.1617 -3.27926 4.0513
head 7.35576 -1.35247 1.40241
rclavicle 8.65335e-015 -5.46658e-015
rhumerus -49.3381 5.25185 -87.3473
rradius 46.2711
rwrist 3.89242
rhand -5.93795 -27.244
rfingers 7.12502
rthumb 19.892 -56.246
lclavicle 8.65335e-015 -5.46658e-015
lhumerus -46.8955 -5.38596 91.1703
lradius 47.591
lwrist 14.0927
lhand -5.12897 -22.6611
lfingers 7.12502
lthumb 20.6695 6.25823
rfemur 20.441 -0.743211 19.4406
rtibia -17.2261
rfoot -7.6191 -12.8665
rtoes 7.22446
lfemur 22.0344 -4.41518 -13.1884
ltibia -21.3732
lfoot -0.644308 19.9658
ltoes -14.5478
97
root -1.40769 18.006 5.64519 -2.73826 -4.00816 -3.02751
lowerback 8.69509 1.85331 0.593401
upperback 1.9489 2.55105 1.12911
thorax -2.87717 1.26573 0.552172
lowerneck -13.7317 -2.15984 -2.42995
upperneck 16.1758 -3.14931 3.85261
head 7.32877 -1.30258 1.3322
rclavicle 6.64686e-016 -8.44835e-015
rhumerus -49.2543 5.19309 -87.2719
rradius 46.103
rwrist 4.12842
rhand -7.03919 -26.6583
rfingers 7.12502
rthumb 18.8331 -55.7666
lclavicle 6.64686e-016 -8.44835e-015
lhumerus -46.4606 -5.21964 90.9332
lradius 46.5136
lwrist 13.3279
lhand -4.75827 -24.1665
lfingers 7.12502
lthumb 21.0257 4.71375
rfemur 20.1455 -0.671164 19.433
rtibia -16.9431
rfoot -7.76868 -12.7898
rtoes 7.15539
lfemur 21.8668 -4.37331 -13.2251
ltibia -21.2492
lfoot -0.678663 19.9706
ltoes -14.8453
98
root -1.40747 18.0105 5.64353 -2.60702 -4.11918 -3.04835
lowerback 8.56408 1.87239 0.652443
upperback 1.89223 2.58101 1.13147
thorax -2.86086 1.28036 0.521628
lowerneck -13.6568 -2.11554 -2.36615
upperneck 16.2611 -3.07724 3.69668
head 7.33735 -1.27871 1.27899
rclavicle 2.95133e-014 6.06293e-015
rhumerus -49.2053 5.0402 -87.1132
rradius 46.0151
rwrist 4.61209
rhand -9.33811 -24.76
rfingers 7.12502
rthumb 16.6209 -54.0683
lclavicle 2.95133e-014 6.06293e-015
lhumerus -46.073 -5.161 90.8278
lradius 45.8529
lwrist 12.733
lhand -4.54733 -24.0654
lfingers 7.12502
lthumb 21.2283 4.79222
rfemur 19.8207 -0.581062 19.4904
rtibia -16.6347
rfoot -7.96815 -12.7246
rtoes 7.23574
lfemur 21.6787 -4.39605 -13.2081
ltibia -21.1132
lfoot -0.787369 20.0862
ltoes -14.6648
99
root -1.40711 18.016 5.64286 -2.49322 -4.20294 -3.07154
lowerback 8.44018 1.87888 0.707765
upperback 1.82886 2.59428 1.14224
thorax -2.8558 1.2867 0.503333
lowerneck -13.5887 -2.08189 -2.41912
upperneck 16.3662 -3.0193 3.66949
head 7.35808 -1.25675 1.28557
rclavicle 2.30217e-014 -4.52235e-015
rhumerus -49.162 4.88589 -86.9496
rradius 45.8512
rwrist 4.94005
rhand -10.1022 -23.8701
rfingers 7.12502
rthumb 15.8852 -53.2386
lclavicle 2.30217e-014 -4.52235e-015
lhumerus -45.7182 -5.01793 90.6995
lradius 45.1633
lwrist 12.1362
lhand -4.35286 -24.0919
lfingers 7.12502
lthumb 21.4151 4.74459
rfemur 19.5055 -0.435579 19.5564
rtibia -16.3024
rfoot -8.18875 -12.7055
rtoes 7.06626
lfemur 21.5095 -4.4685 -13.1993
ltibia -20.987
lfoot -0.919677 20.2447
ltoes -14.4811
100
root -1.40548 18.022 5.64204 -2.38475 -4.23133 -3.12175
lowerback 8.31456 1.85795 0.801603
upperback 1.77331 2.5744 1.16041
thorax -2.84012 1.27631 0.474904
lowerneck -13.5486 -2.03278 -2.55338
upperneck 16.4759 -2.94604 3.76749
head 7.38789 -1.2207 1.34795
rclavicle -3.09359e-015 3.8266e-015
rhumerus -49.0677 4.74423 -86.8115
rradius 45.6008
rwrist 4.94712
rhand -10.3323 -24.7524
rfingers 7.12502
rthumb 15.6637 -54.1384
lclavicle -3.09359e-015 3.8266e-015
lhumerus -45.3563 -4.77424 90.5273
lradius 44.4505
lwrist 11.4793
lhand -4.19513 -24.2615
lfingers 7.12502
lthumb 21.5666 4.55768
rfemur 19.2078 -0.261791 19.6545
rtibia -15.9701
rfoot -8.46626 -12.7442
rtoes 6.94312
lfemur 21.3426 -4.56096 -13.1635
ltibia -20.8727
lfoot -1.04189 20.3616
ltoes -14.0958
101
root -1.4029 18.0273 5.64073 -2.28718 -4.20625 -3.17952
lowerback 8.19954 1.82787 0.911466
upperback 1.73673 2.54336 1.17929
thorax -2.81003 1.2603 0.439382
lowerneck -13.5246 -1.99981 -2.66837
upperneck 16.5419 -2.89685 3.86255
head 7.40663 -1.19541 1.40355
rclavicle 3.22404e-014 1.51573e-014
rhumerus -48.9567 4.53229 -86.6549
rradius 45.3483
rwrist 4.79877
rhand -9.82513 -26.3523
rfingers 7.12502
rthumb 16.152 -55.6993
lclavicle 3.22404e-014 1.51573e-014
lhumerus -44.9418 -4.45291 90.3231
lradius 43.7069
lwrist 10.7037
lhand -4.12513 -24.49
lfingers 7.12502
lthumb 21.6338 4.32144
rfemur 18.9402 -0.126953 19.7521
rtibia -15.6504
rfoot -8.75133 -12.7832
rtoes 6.84996
lfemur 21.1846 -4.66974 -13.1214
ltibia -20.7729
lfoot -1.119 20.4338
ltoes -13.8084
102
root -1.39994 18.0314 5.63901 -2.23025 -4.15772 -3.22235
lowerback 8.12375 1.79355 1.01176
upperback 1.71731 2.50613 1.2041
thorax -2.78472 1.24126 0.414886
lowerneck -13.4629 -1.98693 -2.77643
upperneck 16.5264 -2.86296 3.89534
head 7.3915 -1.18383 1.43604
rclavicle -1.2511e-014 1.19768e-014
rhumerus -48.8413 4.27873 -86.4483
rradius 45.1074
rwrist 4.76913
rhand -8.49464 -26.9796
rfingers 7.12502
rthumb 17.4328 -56.2178
lclavicle -1.2511e-014 1.19768e-014
lhumerus -44.603 -4.20999 90.2262
lradius 43.4325
lwrist 9.86412
lhand -4.11986 -23.3021
lfingers 7.12502
lthumb 21.6389 5.50879
rfemur 18.7203 -0.0321497 19.8236
rtibia -15.3261
rfoot -8.98121 -12.7977
rtoes 6.55096
lfemur 21.0799 -4.75095 -13.0949
ltibia -20.7021
lfoot -1.17727 20.4486
ltoes -13.6092
